# xmcd
#
# Track frame offsets:
#	150
#	14952
#	27884
#	44166
#	57389
#	70481
#	86299
#	103098
#	113607
#	124665
#	143786
#
# Disc length: 2053 seconds
#
# Revision: 0
# Processed by: cddbd v1.5.2PL0 Copyright (c) Steve Scherf et al.
# Submitted via: dBpowerAMP V4.0
#
DISCID=9e08030b
DTITLE=Aretha Franklin - Covered
DYEAR=1900
DGENRE=blues
TTITLE0=Son Of A Preacher Man
TTITLE1=Oh No Not My Baby
TTITLE2=The Long And Winding Road
TTITLE3=Grovin'
TTITLE4=The Tracks Of My Tears
TTITLE5=Let It Be
TTITLE6=People Get Ready
TTITLE7=96 Tears
TTITLE8=Gentle On My Mind
TTITLE9=Love The One You're With 
TTITLE10=I Can't Get No Satisfaction
EXTD=
EXTT0=
EXTT1=
EXTT2=
EXTT3=
EXTT4=
EXTT5=
EXTT6=
EXTT7=
EXTT8=
EXTT9=
EXTT10=
PLAYORDER=
